<svg width="16" height="14" viewBox="0 0 16 14" fill="none" xmlns="http://www.w3.org/2000/svg">
<path d="M14.9656 5.30801C14.9248 5.19694 14.8496 5.09935 14.7493 5.02728C14.6491 4.95521 14.5281 4.91182 14.4014 4.90246L10.6958 4.6307L9.09221 1.35453C9.04114 1.24901 8.95807 1.15939 8.85304 1.09648C8.748 1.03357 8.62548 1.00006 8.50027 1C8.37505 0.999937 8.25249 1.03332 8.14738 1.09612C8.04227 1.15893 7.9591 1.24847 7.9079 1.35393L6.30434 4.6307L2.59867 4.90246C2.47417 4.91157 2.35514 4.95358 2.25583 5.02349C2.15652 5.09339 2.08113 5.18822 2.03869 5.29663C1.99624 5.40504 1.98854 5.52244 2.01649 5.63479C2.04445 5.74714 2.10688 5.84967 2.19632 5.93013L4.93478 8.394L3.96628 12.2647C3.93687 12.3819 3.9463 12.5045 3.99333 12.6166C4.04037 12.7288 4.12284 12.8253 4.23005 12.8937C4.33726 12.962 4.46426 12.9991 4.59456 13C4.72486 13.0009 4.85246 12.9656 4.96078 12.8988L8.50006 10.7211L12.0393 12.8988C12.15 12.9667 12.2806 13.0016 12.4135 12.9989C12.5464 12.9962 12.6751 12.956 12.7825 12.8838C12.8899 12.8115 12.9708 12.7106 13.0142 12.5947C13.0576 12.4788 13.0615 12.3533 13.0254 12.2353L11.8365 8.3958L14.7849 5.94692C14.978 5.78615 15.0488 5.53538 14.9656 5.30801Z" fill="#FFB200"/>
</svg>
