<svg width="22" height="22" viewBox="0 0 22 22" fill="none" xmlns="http://www.w3.org/2000/svg">
<path d="M21.4207 16.4498C21.229 16.1583 21.0142 15.8833 20.7783 15.6278C20.2166 15.0533 19.4935 14.7668 18.6913 14.6828C18.4097 14.6423 18.1691 14.6018 18.0489 14.2733C17.8689 13.7292 17.5844 13.2273 17.2121 12.7971C16.8399 12.3669 16.3874 12.0172 15.8811 11.7683C15.75 11.725 15.6365 11.6385 15.5585 11.5223C15.5203 11.4413 15.4793 11.2763 15.5203 11.1938C15.5599 11.1128 15.7198 11.0288 15.8005 11.0708C15.9382 11.123 16.0622 11.2072 16.1627 11.3168C16.4033 11.5223 16.6027 11.8103 16.8447 12.0158C17.3669 12.3848 17.7687 12.1808 17.9286 11.5643C18.0899 11.0303 18.0899 10.5368 17.9682 10.0043C17.8479 9.38784 17.3258 9.09984 16.8037 9.42834C16.5631 9.55134 16.4033 9.79884 16.2023 9.96234C16.0821 10.0853 16.0014 10.2083 15.8797 10.2923C15.601 10.4963 15.3194 10.4558 15.117 10.1678C14.9982 10.0028 14.9571 9.83934 14.8779 9.67584C14.7166 9.34584 14.5963 9.34584 14.3954 9.63384C14.3558 9.67584 14.3558 9.71634 14.3558 9.75684C14.3147 9.75684 14.3147 9.71634 14.2751 9.71634V9.55134C14.2751 9.10134 14.0742 8.85384 13.6327 8.77134C13.4714 8.73084 13.2719 8.73084 13.1106 8.73084C12.1866 8.73084 11.3447 8.40234 10.7023 7.74534C10.4618 7.53984 10.2609 7.29534 10.0599 7.04784C9.97925 6.96534 9.97925 6.88284 10.0599 6.75984C10.1406 6.63684 10.2609 6.47334 10.3005 6.30984C10.3811 5.85684 9.97925 5.03484 9.53779 4.87134C9.24225 4.75563 8.91792 4.74142 8.61378 4.83084C7.77192 5.03634 7.28939 5.65134 7.00925 6.43134C6.40792 8.07384 6.24658 9.79884 6.48712 11.5643C6.60738 12.5903 7.08845 13.1648 8.01245 13.3298C8.97605 13.5338 9.97925 13.6583 10.9839 13.7798C11.4239 13.8218 11.7055 14.0273 11.8669 14.4788C12.1881 15.2993 12.5093 16.1618 12.8305 16.9838C12.9097 17.1488 12.9918 17.3528 13.1106 17.5163C13.4333 18.0503 13.8733 18.1733 14.4365 17.9693C14.9982 17.7638 15.2783 17.3123 15.1185 16.6958C14.9982 16.2443 14.8369 15.8333 14.677 15.3818C14.4365 14.7668 14.1549 14.1518 13.9935 13.4933C13.6327 12.2618 12.9903 11.6453 11.7466 11.4818C11.2641 11.3993 10.8226 11.3993 10.3415 11.2763C9.85898 11.1938 9.69912 10.9883 9.74019 10.4558C9.77832 10.0853 9.81938 9.75684 9.90005 9.38784C9.93965 9.14184 10.0203 9.09984 10.2609 9.22284C11.0235 9.71634 11.8669 10.0448 12.7498 10.1678C13.1913 10.2083 13.6327 10.2908 14.0346 10.1678C14.0742 10.2503 14.0742 10.2908 14.1153 10.3733C14.3147 10.8248 14.5157 11.2358 14.677 11.6873C15.1991 13.1648 15.6802 14.6423 16.1613 16.1618C16.2419 16.4498 16.3622 16.4918 16.6042 16.3268C16.7655 16.2443 16.8843 16.1213 17.0442 16.0388C18.2909 15.2993 19.4935 15.3818 20.6581 16.2848C20.9397 16.5323 21.2198 16.7783 21.5014 17.0648C21.6217 16.8608 21.541 16.6148 21.4207 16.4498Z" fill="white" fill-opacity="0.87"/>
<path d="M14.7562 18.3369H9.90006C9.53926 18.3369 9.33833 18.2154 9.25913 17.8449C9.17846 17.5164 9.0582 17.2299 8.97753 16.8999C8.7766 16.2849 8.737 15.6699 8.97753 15.0129C9.01713 14.9304 9.01713 14.8479 9.0582 14.7249C9.17846 14.1099 8.93793 13.7799 8.29553 13.7394H4.23873C3.31473 13.7394 2.3526 13.7814 1.4286 13.8219C0.626331 13.8624 0.344731 14.1909 0.62633 14.9319C0.866864 15.5469 0.827264 16.0794 0.62633 16.6959C0.385797 17.4759 0.224464 18.2559 0.0249972 19.0359C-0.0556695 19.3239 0.0645972 19.4469 0.303664 19.4874C0.545664 19.5294 0.787664 19.5294 0.987131 19.5294C1.3098 19.5294 1.46966 19.4064 1.54886 19.0779C1.58993 18.8724 1.58993 18.6669 1.58993 18.4614C1.79086 16.8609 2.995 15.6699 4.601 15.5874C6.12633 15.4644 7.45073 16.4904 7.8526 18.0504C7.9318 18.3804 7.97286 18.7494 8.01393 19.1184C8.05353 19.3644 8.1738 19.4874 8.41433 19.5294H14.8779C15.0393 19.5294 15.1991 19.4874 15.2783 19.3239C15.5599 18.8304 15.2783 18.3789 14.7577 18.3384L14.7562 18.3369Z" fill="white" fill-opacity="0.87"/>
<path d="M18.6106 16.6134C17.3258 16.6134 16.4033 17.5584 16.4033 18.7899C16.4033 20.0214 17.3669 21.0069 18.571 21.0069C19.8147 21.0069 20.7387 20.0619 20.7387 18.7899C20.7387 17.5584 19.8147 16.6149 18.6121 16.6149L18.6106 16.6134Z" fill="white" fill-opacity="0.87"/>
<path d="M4.88117 16.6134C4.59532 16.6033 4.3104 16.6521 4.04336 16.7569C3.77631 16.8617 3.53259 17.0204 3.32668 17.2234C3.12077 17.4264 2.95687 17.6697 2.84472 17.9388C2.73257 18.2079 2.67446 18.4974 2.67384 18.7899C2.63277 20.0634 3.59784 21.0474 4.84157 21.0474C6.04571 21.0894 7.00931 20.1444 7.04891 18.8724C7.04891 17.5989 6.12491 16.6134 4.88117 16.6134Z" fill="white" fill-opacity="0.87"/>
<path d="M10.4207 4.54286C11.1834 4.70786 12.0267 4.25636 12.3479 3.47636C12.4682 3.18836 12.5092 2.90036 12.5488 2.57186C12.8304 2.65436 13.1502 2.73686 13.4728 2.81936C13.6738 2.85986 13.794 2.81936 13.8336 2.65436C13.8732 2.48936 13.794 2.36786 13.5931 2.32586C13.2308 2.24336 12.87 2.12186 12.5078 2.03936C12.43 1.99736 12.3098 1.91486 12.2702 1.83386C11.8668 1.13486 11.0235 0.806356 10.2608 1.01186C9.49818 1.21736 8.93645 1.95686 8.93645 2.77736C8.93645 3.63986 9.53778 4.33736 10.4207 4.54286Z" fill="white" fill-opacity="0.87"/>
</svg>
