<svg width="34" height="26" viewBox="0 0 34 26" fill="none" xmlns="http://www.w3.org/2000/svg">
<path fill-rule="evenodd" clip-rule="evenodd" d="M5.5 6H19.5C19.7652 6 20.0196 6.10536 20.2071 6.29289C20.3946 6.48043 20.5 6.73478 20.5 7V21C20.5 21.2652 20.3946 21.5196 20.2071 21.7071C20.0196 21.8946 19.7652 22 19.5 22H5.5C5.23478 22 4.98043 21.8946 4.79289 21.7071C4.60536 21.5196 4.5 21.2652 4.5 21V7C4.5 6.73478 4.60536 6.48043 4.79289 6.29289C4.98043 6.10536 5.23478 6 5.5 6ZM2.5 7C2.5 6.20435 2.81607 5.44129 3.37868 4.87868C3.94129 4.31607 4.70435 4 5.5 4H19.5C20.2956 4 21.0587 4.31607 21.6213 4.87868C22.1839 5.44129 22.5 6.20435 22.5 7V21C22.5 21.7956 22.1839 22.5587 21.6213 23.1213C21.0587 23.6839 20.2956 24 19.5 24H5.5C4.70435 24 3.94129 23.6839 3.37868 23.1213C2.81607 22.5587 2.5 21.7956 2.5 21V7ZM12.5 14C9.739 14 7.5 11.314 7.5 8H9.5C9.5 10.566 11.17 12 12.5 12C13.83 12 15.5 10.566 15.5 8H17.5C17.5 11.314 15.261 14 12.5 14Z" fill="#353536" fill-opacity="0.5"/>
<rect x="16.3" width="15.9833" height="14" rx="7" fill="#82C446"/>
<path d="M22.0083 5.79688H23.0876C23.0876 5.22266 23.6138 4.80859 24.3095 4.80859C24.9472 4.80859 25.3709 5.18359 25.3709 5.67578C25.3709 6.09766 25.1836 6.37891 24.3452 7.10156L22.0708 9.0625V9.75H26.5928V8.92578H23.5915V8.90625L25.0097 7.6875C26.1335 6.71875 26.4947 6.28125 26.4947 5.61328C26.4947 4.70703 25.6206 4 24.3095 4C22.9716 4 22.0083 4.74609 22.0083 5.79688Z" fill="white"/>
</svg>
