<svg width="21" height="22" viewBox="0 0 21 22" fill="none" xmlns="http://www.w3.org/2000/svg">
<path fill-rule="evenodd" clip-rule="evenodd" d="M9.77736 0.210648C10.1385 -0.0702159 10.6441 -0.0702159 11.0052 0.210648L20.3965 7.515C20.6401 7.70445 20.7826 7.99576 20.7826 8.30435V18.913C20.7826 19.7318 20.4574 20.5169 19.8785 21.0958C19.2995 21.6748 18.5144 22 17.6957 22H3.08696C2.26824 22 1.48307 21.6748 0.904149 21.0958C0.325232 20.5169 0 19.7318 0 18.913V8.30435C0 7.99576 0.142473 7.70445 0.386059 7.515L9.77736 0.210648ZM2 8.79343V18.913C2 19.2013 2.11452 19.4778 2.31836 19.6816C2.52221 19.8855 2.79868 20 3.08696 20H17.6957C17.9839 20 18.2604 19.8855 18.4642 19.6816C18.6681 19.4778 18.7826 19.2013 18.7826 18.913V8.79343L10.3913 2.26686L2 8.79343Z" fill="#353536"/>
<path fill-rule="evenodd" clip-rule="evenodd" d="M7.13068 13.1739C7.13068 12.6216 7.5784 12.1739 8.13068 12.1739H12.6524C13.2047 12.1739 13.6524 12.6216 13.6524 13.1739V21C13.6524 21.5523 13.2047 22 12.6524 22C12.1001 22 11.6524 21.5523 11.6524 21V14.1739H9.13068V21C9.13068 21.5523 8.68297 22 8.13068 22C7.5784 22 7.13068 21.5523 7.13068 21V13.1739Z" fill="#353536"/>
</svg>
