<svg width="12" height="13" viewBox="0 0 12 13" fill="none" xmlns="http://www.w3.org/2000/svg">
<path d="M-2.0949e-06 4.9915C-0.00165581 5.09285 0.0275361 5.19231 0.0837031 5.2767C0.13987 5.36108 0.220359 5.4264 0.314498 5.464L5.115 7.3845L7.0355 12.1855C7.0726 12.2784 7.13669 12.358 7.21949 12.414C7.30229 12.4701 7.4 12.5 7.5 12.5H7.508C7.60927 12.4984 7.70766 12.4661 7.79016 12.4073C7.87266 12.3486 7.93537 12.2662 7.97 12.171L11.97 1.171C12.0027 1.08151 12.0092 0.984529 11.9887 0.891476C11.9682 0.798424 11.9215 0.713175 11.8541 0.645768C11.7868 0.578362 11.7016 0.531606 11.6085 0.511007C11.5155 0.490407 11.4185 0.496822 11.329 0.529497L0.328998 4.5295C0.233781 4.56421 0.151346 4.62702 0.0925994 4.7096C0.0338525 4.79219 0.0015615 4.89066 -2.0949e-06 4.992V4.9915Z" fill="#838383"/>
</svg>
