<svg width="21" height="20" viewBox="0 0 21 20" fill="none" xmlns="http://www.w3.org/2000/svg">
<path fill-rule="evenodd" clip-rule="evenodd" d="M3.5 2H17.5C17.7652 2 18.0196 2.10536 18.2071 2.29289C18.3946 2.48043 18.5 2.73478 18.5 3V17C18.5 17.2652 18.3946 17.5196 18.2071 17.7071C18.0196 17.8946 17.7652 18 17.5 18H3.5C3.23478 18 2.98043 17.8946 2.79289 17.7071C2.60536 17.5196 2.5 17.2652 2.5 17V3C2.5 2.73478 2.60536 2.48043 2.79289 2.29289C2.98043 2.10536 3.23478 2 3.5 2ZM0.5 3C0.5 2.20435 0.816071 1.44129 1.37868 0.87868C1.94129 0.316071 2.70435 0 3.5 0H17.5C18.2956 0 19.0587 0.316071 19.6213 0.87868C20.1839 1.44129 20.5 2.20435 20.5 3V17C20.5 17.7956 20.1839 18.5587 19.6213 19.1213C19.0587 19.6839 18.2956 20 17.5 20H3.5C2.70435 20 1.94129 19.6839 1.37868 19.1213C0.816071 18.5587 0.5 17.7956 0.5 17V3ZM10.5 10C7.739 10 5.5 7.314 5.5 4H7.5C7.5 6.566 9.17 8 10.5 8C11.83 8 13.5 6.566 13.5 4H15.5C15.5 7.314 13.261 10 10.5 10Z" fill="#353536" fill-opacity="0.5"/>
</svg>
