<svg width="19" height="20" viewBox="0 0 19 20" fill="none" xmlns="http://www.w3.org/2000/svg">
<path fill-rule="evenodd" clip-rule="evenodd" d="M1.69967 13.5709C2.62788 12.6427 3.88681 12.1212 5.1995 12.1212H13.2803C14.593 12.1212 15.8519 12.6427 16.7801 13.5709C17.7083 14.4991 18.2298 15.758 18.2298 17.0707V19.0909C18.2298 19.593 17.8228 20 17.3207 20C16.8186 20 16.4116 19.593 16.4116 19.0909V17.0707C16.4116 16.2402 16.0817 15.4438 15.4945 14.8565C14.9072 14.2693 14.1108 13.9394 13.2803 13.9394H5.1995C4.36902 13.9394 3.57256 14.2693 2.98532 14.8565C2.39809 15.4438 2.06818 16.2402 2.06818 17.0707V19.0909C2.06818 19.593 1.66117 20 1.15909 20C0.657014 20 0.25 19.593 0.25 19.0909V17.0707C0.25 15.758 0.771463 14.4991 1.69967 13.5709Z" fill="#353536" fill-opacity="0.5"/>
<path fill-rule="evenodd" clip-rule="evenodd" d="M9.2401 1.81818C7.51072 1.81818 6.10878 3.22012 6.10878 4.9495C6.10878 6.67887 7.51072 8.08081 9.2401 8.08081C10.9695 8.08081 12.3714 6.67887 12.3714 4.9495C12.3714 3.22012 10.9695 1.81818 9.2401 1.81818ZM4.2906 4.9495C4.2906 2.21597 6.50657 0 9.2401 0C11.9736 0 14.1896 2.21597 14.1896 4.9495C14.1896 7.68303 11.9736 9.89899 9.2401 9.89899C6.50657 9.89899 4.2906 7.68303 4.2906 4.9495Z" fill="#353536" fill-opacity="0.5"/>
</svg>
