<svg width="21" height="20" viewBox="0 0 21 20" fill="none" xmlns="http://www.w3.org/2000/svg">
<path fill-rule="evenodd" clip-rule="evenodd" d="M9.73988 1.81816C5.77905 1.81816 2.56816 5.02905 2.56816 8.98988C2.56816 12.9507 5.77905 16.1616 9.73988 16.1616C13.7007 16.1616 16.9116 12.9507 16.9116 8.98988C16.9116 5.02905 13.7007 1.81816 9.73988 1.81816ZM0.75 8.98988C0.75 4.02491 4.77491 0 9.73988 0C14.7049 0 18.7298 4.02491 18.7298 8.98988C18.7298 13.9549 14.7049 17.9798 9.73988 17.9798C4.77491 17.9798 0.75 13.9549 0.75 8.98988Z" fill="#353536" fill-opacity="0.5"/>
<path fill-rule="evenodd" clip-rule="evenodd" d="M14.8039 14.0542C15.159 13.6992 15.7345 13.6992 16.0896 14.0542L20.4835 18.4481C20.8385 18.8031 20.8385 19.3787 20.4835 19.7337C20.1285 20.0888 19.5529 20.0888 19.1979 19.7337L14.8039 15.3398C14.4489 14.9848 14.4489 14.4092 14.8039 14.0542Z" fill="#353536" fill-opacity="0.5"/>
</svg>
